<svg viewBox="0 0 846.66 846.66" xml:space="preserve" xmlns="http://www.w3.org/2000/svg" shape-rendering="geometricPrecision" text-rendering="geometricPrecision" image-rendering="optimizeQuality" fill-rule="evenodd" clip-rule="evenodd"><path d="M587.84 762C708.13 670.66 784.34 533.15 798 382.72c-129.37-74.06-289.94-74.66-420.33-.01 13.7 150.91 90.36 288.33 210.17 379.29zM83.89 623.07c-26.85 0-26.85-40.82 0-40.82h165.53c26.85 0 26.85 40.82 0 40.82H83.89zm0-59.71c-26.85 0-26.85-40.82 0-40.82h230.7c26.84 0 26.84 40.82 0 40.82H83.89zm4.33-168.05c-13.4-23.15 21.84-43.56 35.24-20.41l37.85 65.55 103.2-178.74c13.29-23.14 48.53-2.89 35.23 20.25L179.53 490.18c-7.09 14.34-27.64 15.35-35.86 1.16l-55.45-96.03zm553.21-157.48H505.29c-26.85 0-26.85-40.82 0-40.82h136.14v-64.59c0-28.94-23.75-52.7-52.69-52.7h-52.62L451.73 225.9c-3.22 7.04-10.32 11.93-18.57 11.93H47.8v382.83c0 28.93 23.76 52.69 52.7 52.69h344.27c-63.65-87.86-101.42-191.95-108.74-300.32-.55-8.16 3.79-15.52 10.51-19.21 88.34-53.84 192.27-76.61 294.89-64.66v-51.33zm-74 144.22a367.254 367.254 0 0 0-130.72 31.85c16.27 97.06 61.99 187.05 130.72 257.44V382.05zm20.41-41.38c11.27 0 20.41 9.14 20.41 20.41l-.05 357.07c.01 17.02-20.18 26.84-33.52 15.54a523.402 523.402 0 0 1-180.34-327.57c-1.85-8.86 2.4-18.21 10.88-22.43 56.63-28.25 119.33-43.02 182.62-43.02zm-110.6 373.5H100.5c-51.48 0-93.52-42.04-93.52-93.51V132.42c0-51.48 42.04-93.52 93.52-93.52h488.24c51.47 0 93.51 42.04 93.51 93.52v163.34c51.38 10.69 101.38 30.2 147.67 58.53 6.69 4.09 10.19 11.42 9.71 18.74-11.6 172.11-99.73 330.39-239.91 430.91-7.45 5.33-17.27 4.94-24.21-.32a577.029 577.029 0 0 1-98.27-89.45zM98.98 160.82c-26.85 0-26.85-40.82 0-40.82h19.38c26.85 0 26.85 40.82 0 40.82H98.98zm83.64 0c-26.85 0-26.85-40.82 0-40.82H202c26.85 0 26.85 40.82 0 40.82h-19.38zm83.64 0c-26.85 0-26.85-40.82 0-40.82h19.38c26.85 0 26.85 40.82 0 40.82h-19.38zm222.93-81.1H100.5c-28.94 0-52.7 23.76-52.7 52.7v64.59h373.68l67.71-117.29z" fill="#ffffff" fill-rule="nonzero" class="fill-000000"></path></svg>