<svg data-name="Layer 1" viewBox="0 0 64 64" xmlns="http://www.w3.org/2000/svg"><path d="M19.257 57.6a8.759 8.759 0 0 0 7.618 4.4h10.25a8.759 8.759 0 0 0 7.618-4.4 9.02 9.02 0 0 0 .081-9.059l-8.752-15.584 2.539-6.485a3 3 0 0 0-3.823-4.2L32.4 23.337a.968.968 0 0 1-.8 0l-2.389-1.067a2.926 2.926 0 0 0-3.442.741 2.956 2.956 0 0 0-.381 3.462l2.539 6.485-8.751 15.583a9.02 9.02 0 0 0 .081 9.059Zm7.967-31.927a1.063 1.063 0 0 0-.072-.148.975.975 0 0 1 .112-1.186.947.947 0 0 1 1.132-.245l2.388 1.068a2.98 2.98 0 0 0 2.431 0l2.385-1.068a.95.95 0 0 1 1.132.245.975.975 0 0 1 .112 1.186 1.063 1.063 0 0 0-.072.148L34.3 32h-4.6Zm-6.3 23.848L29.637 34h4.726l8.717 15.521a7.037 7.037 0 0 1-.063 7.069A6.778 6.778 0 0 1 37.125 60h-10.25a6.778 6.778 0 0 1-5.892-3.41 7.037 7.037 0 0 1-.063-7.069Z" fill="#ffffff" class="fill-000000"></path><path d="M31 55.858V57a1 1 0 0 0 2 0v-1.142A4 4 0 0 0 36 52v-2a4 4 0 0 0-3-3.858v-5.864A1.993 1.993 0 0 1 34 42v2a1 1 0 0 0 2 0v-2a4 4 0 0 0-3-3.858V37a1 1 0 0 0-2 0v1.142A4 4 0 0 0 28 42v2a4 4 0 0 0 3 3.858v5.864A1.993 1.993 0 0 1 30 52v-2a1 1 0 0 0-2 0v2a4 4 0 0 0 3 3.858Zm2-7.58A1.993 1.993 0 0 1 34 50v2a1.993 1.993 0 0 1-1 1.722ZM30 44v-2a1.993 1.993 0 0 1 1-1.722v5.444A1.993 1.993 0 0 1 30 44ZM15 62a1 1 0 0 0 1-1V31a1 1 0 0 0-1-1h-4a1 1 0 0 0-1 1v30a1 1 0 0 0 1 1Zm-3-30h2v28h-2ZM3 62h4a1 1 0 0 0 1-1V23a1 1 0 0 0-1-1H3a1 1 0 0 0-1 1v38a1 1 0 0 0 1 1Zm1-38h2v36H4ZM5 10h2.051A15.012 15.012 0 0 0 20.9 23.96a1.01 1.01 0 0 0 1.1-1 .987.987 0 0 0-.9-.993A13.012 13.012 0 0 1 9.051 10H11a1 1 0 0 0 .9-1.447l-3-6a1 1 0 0 0-1.79 0l-3 6A1 1 0 0 0 5 10Zm3-4.764L9.382 8H6.618ZM53 62a1 1 0 0 0 1-1V31a1 1 0 0 0-1-1h-4a1 1 0 0 0-1 1v30a1 1 0 0 0 1 1Zm-3-30h2v28h-2ZM61 22h-4a1 1 0 0 0-1 1v38a1 1 0 0 0 1 1h4a1 1 0 0 0 1-1V23a1 1 0 0 0-1-1Zm-1 38h-2V24h2ZM43.1 23.96A15.012 15.012 0 0 0 56.949 10H59a1 1 0 0 0 .9-1.447l-3-6a1 1 0 0 0-1.79 0l-3 6A1 1 0 0 0 53 10h1.949A13.012 13.012 0 0 1 42.9 21.969a.987.987 0 0 0-.9.993 1.01 1.01 0 0 0 1.1.998ZM54.618 8 56 5.236 57.382 8ZM25.386 10.985c4.472.789 4.84 1.157 5.629 5.629a1 1 0 0 0 1.97 0c.789-4.472 1.157-4.84 5.629-5.629a1 1 0 0 0 0-1.97c-4.472-.789-4.84-1.157-5.629-5.629a1 1 0 0 0-1.97 0c-.789 4.472-1.157 4.84-5.629 5.629a1 1 0 0 0 0 1.97ZM32 7.478A4.559 4.559 0 0 0 34.522 10 4.559 4.559 0 0 0 32 12.522 4.559 4.559 0 0 0 29.478 10 4.559 4.559 0 0 0 32 7.478Z" fill="#ffffff" class="fill-000000"></path></svg>